<mxfile host="app.diagrams.net" agent="Mozilla/5.0 (Macintosh; Intel Mac OS X 10_15_7) AppleWebKit/537.36 (KHTML, like Gecko) Chrome/132.0.0.0 Safari/537.36" version="26.1.0">
  <diagram name="Hong Meow Hotel Database Schema" id="G3S9xflxcuYCvzOUw2Ry">
    <mxGraphModel dx="2716" dy="1840" grid="1" gridSize="10" guides="1" tooltips="1" connect="1" arrows="1" fold="1" page="1" pageScale="1" pageWidth="1600" pageHeight="900" math="0" shadow="0">
      <root>
        <mxCell id="0" />
        <mxCell id="1" parent="0" />
        <mxCell id="yYu6e-wtfFfVc4EaeInW-2" value="Customer (&lt;u&gt;CID&lt;/u&gt;, CusFName, CusLName, CusPhone, CusEmail)" style="rounded=0;whiteSpace=wrap;html=1;fillColor=#6AB023;fontStyle=1;fontSize=14;strokeColor=#000000;" vertex="1" parent="1">
          <mxGeometry x="80" y="40" width="500" height="40" as="geometry" />
        </mxCell>
        <mxCell id="yYu6e-wtfFfVc4EaeInW-3" value="Employee (&lt;u&gt;EmpCID&lt;/u&gt;, EmpFName, EmpLName, EmpBirth, EmpAge, EmpAddress, EmpEmail, EmpPhone)" style="rounded=0;whiteSpace=wrap;html=1;fillColor=#6AB023;fontStyle=1;fontSize=14;strokeColor=#000000;" vertex="1" parent="1">
          <mxGeometry x="80" y="120" width="725" height="40" as="geometry" />
        </mxCell>
        <mxCell id="yYu6e-wtfFfVc4EaeInW-42" style="edgeStyle=orthogonalEdgeStyle;rounded=0;orthogonalLoop=1;jettySize=auto;html=1;exitX=0.277;exitY=0.954;exitDx=0;exitDy=0;entryX=1;entryY=0.5;entryDx=0;entryDy=0;exitPerimeter=0;" edge="1" parent="1" source="yYu6e-wtfFfVc4EaeInW-4" target="yYu6e-wtfFfVc4EaeInW-2">
          <mxGeometry relative="1" as="geometry">
            <Array as="points">
              <mxPoint x="218" y="170" />
              <mxPoint x="850" y="170" />
              <mxPoint x="850" y="60" />
            </Array>
          </mxGeometry>
        </mxCell>
        <mxCell id="yYu6e-wtfFfVc4EaeInW-4" value="Urgent (&lt;u&gt;UrID&lt;/u&gt;, CID, UrFname, UrLName, UrPhone, UrRelationship)" style="rounded=0;whiteSpace=wrap;html=1;fillColor=#6AB023;fontStyle=1;fontSize=14;strokeColor=#000000;" vertex="1" parent="1">
          <mxGeometry x="80" y="200" width="500" height="40" as="geometry" />
        </mxCell>
        <mxCell id="yYu6e-wtfFfVc4EaeInW-44" style="edgeStyle=orthogonalEdgeStyle;rounded=0;orthogonalLoop=1;jettySize=auto;html=1;exitX=0.373;exitY=-0.023;exitDx=0;exitDy=0;entryX=1;entryY=0.5;entryDx=0;entryDy=0;exitPerimeter=0;" edge="1" parent="1" source="yYu6e-wtfFfVc4EaeInW-5" target="yYu6e-wtfFfVc4EaeInW-6">
          <mxGeometry relative="1" as="geometry" />
        </mxCell>
        <mxCell id="yYu6e-wtfFfVc4EaeInW-5" value="Room (&lt;u&gt;RID&lt;/u&gt;, RoomType_ID, Price, RoomTotal, RoomName)" style="rounded=0;whiteSpace=wrap;html=1;fillColor=#6AB023;fontStyle=1;fontSize=14;strokeColor=#000000;" vertex="1" parent="1">
          <mxGeometry x="80" y="840" width="450" height="40" as="geometry" />
        </mxCell>
        <mxCell id="yYu6e-wtfFfVc4EaeInW-6" value="RoomType (&lt;u&gt;RTID&lt;/u&gt;, RTDescription, RTName)" style="rounded=0;whiteSpace=wrap;html=1;fillColor=#6AB023;fontStyle=1;fontSize=14;strokeColor=#000000;" vertex="1" parent="1">
          <mxGeometry x="80" y="760" width="330" height="40" as="geometry" />
        </mxCell>
        <mxCell id="yYu6e-wtfFfVc4EaeInW-45" style="edgeStyle=orthogonalEdgeStyle;rounded=0;orthogonalLoop=1;jettySize=auto;html=1;exitX=0.5;exitY=0;exitDx=0;exitDy=0;entryX=1;entryY=0.5;entryDx=0;entryDy=0;" edge="1" parent="1" source="yYu6e-wtfFfVc4EaeInW-7" target="yYu6e-wtfFfVc4EaeInW-6">
          <mxGeometry relative="1" as="geometry">
            <Array as="points">
              <mxPoint x="195" y="900" />
              <mxPoint x="550" y="900" />
              <mxPoint x="550" y="780" />
            </Array>
          </mxGeometry>
        </mxCell>
        <mxCell id="yYu6e-wtfFfVc4EaeInW-7" value="DogRoom (&lt;u&gt;RID&lt;/u&gt;, DFeature)" style="rounded=0;whiteSpace=wrap;html=1;fillColor=#6AB023;fontStyle=1;fontSize=14;strokeColor=#000000;" vertex="1" parent="1">
          <mxGeometry x="80" y="910" width="230" height="40" as="geometry" />
        </mxCell>
        <mxCell id="yYu6e-wtfFfVc4EaeInW-46" style="edgeStyle=orthogonalEdgeStyle;rounded=0;orthogonalLoop=1;jettySize=auto;html=1;exitX=0.5;exitY=0;exitDx=0;exitDy=0;entryX=1;entryY=0.5;entryDx=0;entryDy=0;" edge="1" parent="1" source="yYu6e-wtfFfVc4EaeInW-8" target="yYu6e-wtfFfVc4EaeInW-6">
          <mxGeometry relative="1" as="geometry">
            <Array as="points">
              <mxPoint x="195" y="970" />
              <mxPoint x="550" y="970" />
              <mxPoint x="550" y="780" />
            </Array>
          </mxGeometry>
        </mxCell>
        <mxCell id="yYu6e-wtfFfVc4EaeInW-8" value="CatRoom (&lt;u&gt;RID&lt;/u&gt;, CFeature)" style="rounded=0;whiteSpace=wrap;html=1;fillColor=#6AB023;fontStyle=1;fontSize=14;strokeColor=#000000;" vertex="1" parent="1">
          <mxGeometry x="80" y="1000" width="230" height="40" as="geometry" />
        </mxCell>
        <mxCell id="yYu6e-wtfFfVc4EaeInW-47" style="edgeStyle=orthogonalEdgeStyle;rounded=0;orthogonalLoop=1;jettySize=auto;html=1;exitX=0.22;exitY=-0.035;exitDx=0;exitDy=0;entryX=1;entryY=0.5;entryDx=0;entryDy=0;exitPerimeter=0;" edge="1" parent="1" source="yYu6e-wtfFfVc4EaeInW-9" target="yYu6e-wtfFfVc4EaeInW-2">
          <mxGeometry relative="1" as="geometry">
            <Array as="points">
              <mxPoint x="219" y="520" />
              <mxPoint x="220" y="520" />
              <mxPoint x="220" y="490" />
              <mxPoint x="850" y="490" />
              <mxPoint x="850" y="60" />
            </Array>
          </mxGeometry>
        </mxCell>
        <mxCell id="yYu6e-wtfFfVc4EaeInW-9" value="Booking (&lt;u&gt;BID&lt;/u&gt;, CID, CheckInDate, CheckOutDate, Duration, RoomAmount, RoomStatus)" style="rounded=0;whiteSpace=wrap;html=1;fillColor=#6AB023;fontStyle=1;fontSize=14;strokeColor=#000000;" vertex="1" parent="1">
          <mxGeometry x="80" y="520" width="630" height="40" as="geometry" />
        </mxCell>
        <mxCell id="yYu6e-wtfFfVc4EaeInW-49" style="edgeStyle=orthogonalEdgeStyle;rounded=0;orthogonalLoop=1;jettySize=auto;html=1;exitX=0.404;exitY=-0.011;exitDx=0;exitDy=0;entryX=1;entryY=0.5;entryDx=0;entryDy=0;exitPerimeter=0;" edge="1" parent="1" source="yYu6e-wtfFfVc4EaeInW-10" target="yYu6e-wtfFfVc4EaeInW-9">
          <mxGeometry relative="1" as="geometry" />
        </mxCell>
        <mxCell id="yYu6e-wtfFfVc4EaeInW-51" style="edgeStyle=orthogonalEdgeStyle;rounded=0;orthogonalLoop=1;jettySize=auto;html=1;exitX=0.5;exitY=1;exitDx=0;exitDy=0;entryX=1;entryY=0.5;entryDx=0;entryDy=0;" edge="1" parent="1" source="yYu6e-wtfFfVc4EaeInW-10" target="yYu6e-wtfFfVc4EaeInW-5">
          <mxGeometry relative="1" as="geometry">
            <Array as="points">
              <mxPoint x="270" y="640" />
              <mxPoint x="270" y="660" />
              <mxPoint x="550" y="660" />
              <mxPoint x="550" y="860" />
            </Array>
          </mxGeometry>
        </mxCell>
        <mxCell id="yYu6e-wtfFfVc4EaeInW-52" style="edgeStyle=orthogonalEdgeStyle;rounded=0;orthogonalLoop=1;jettySize=auto;html=1;entryX=1;entryY=0.5;entryDx=0;entryDy=0;" edge="1" parent="1" source="yYu6e-wtfFfVc4EaeInW-10" target="yYu6e-wtfFfVc4EaeInW-11">
          <mxGeometry relative="1" as="geometry">
            <Array as="points">
              <mxPoint x="402" y="660" />
              <mxPoint x="800" y="660" />
              <mxPoint x="800" y="300" />
            </Array>
          </mxGeometry>
        </mxCell>
        <mxCell id="yYu6e-wtfFfVc4EaeInW-10" value="BookedRoom (&lt;u&gt;BID&lt;/u&gt;, &lt;u&gt;RID&lt;/u&gt;, RoomStatus, PetID)" style="rounded=0;whiteSpace=wrap;html=1;fillColor=#6AB023;fontStyle=1;fontSize=14;strokeColor=#000000;" vertex="1" parent="1">
          <mxGeometry x="80" y="600" width="390" height="40" as="geometry" />
        </mxCell>
        <mxCell id="yYu6e-wtfFfVc4EaeInW-53" style="edgeStyle=orthogonalEdgeStyle;rounded=0;orthogonalLoop=1;jettySize=auto;html=1;exitX=0.25;exitY=1;exitDx=0;exitDy=0;entryX=1;entryY=0.5;entryDx=0;entryDy=0;" edge="1" parent="1" source="yYu6e-wtfFfVc4EaeInW-11" target="yYu6e-wtfFfVc4EaeInW-2">
          <mxGeometry relative="1" as="geometry">
            <Array as="points">
              <mxPoint x="150" y="320" />
              <mxPoint x="150" y="340" />
              <mxPoint x="850" y="340" />
              <mxPoint x="850" y="60" />
            </Array>
          </mxGeometry>
        </mxCell>
        <mxCell id="yYu6e-wtfFfVc4EaeInW-11" value="Pet (&lt;u&gt;PID&lt;/u&gt;, CID, PName, PAge, PVaccine, PDisease)" style="rounded=0;whiteSpace=wrap;html=1;fillColor=#6AB023;fontStyle=1;fontSize=14;strokeColor=#000000;" vertex="1" parent="1">
          <mxGeometry x="80" y="280" width="330" height="40" as="geometry" />
        </mxCell>
        <mxCell id="yYu6e-wtfFfVc4EaeInW-54" style="edgeStyle=orthogonalEdgeStyle;rounded=0;orthogonalLoop=1;jettySize=auto;html=1;exitX=0.5;exitY=0;exitDx=0;exitDy=0;entryX=1;entryY=0.5;entryDx=0;entryDy=0;" edge="1" parent="1" source="yYu6e-wtfFfVc4EaeInW-12" target="yYu6e-wtfFfVc4EaeInW-11">
          <mxGeometry relative="1" as="geometry">
            <Array as="points">
              <mxPoint x="150" y="360" />
              <mxPoint x="150" y="350" />
              <mxPoint x="430" y="350" />
              <mxPoint x="430" y="300" />
            </Array>
          </mxGeometry>
        </mxCell>
        <mxCell id="yYu6e-wtfFfVc4EaeInW-12" value="Dog (&lt;u&gt;PID&lt;/u&gt;, DBreeds)" style="rounded=0;whiteSpace=wrap;html=1;fillColor=#6AB023;fontStyle=1;fontSize=14;strokeColor=#000000;" vertex="1" parent="1">
          <mxGeometry x="80" y="360" width="170" height="40" as="geometry" />
        </mxCell>
        <mxCell id="yYu6e-wtfFfVc4EaeInW-55" style="edgeStyle=orthogonalEdgeStyle;rounded=0;orthogonalLoop=1;jettySize=auto;html=1;entryX=1;entryY=0.5;entryDx=0;entryDy=0;exitX=0.413;exitY=0.008;exitDx=0;exitDy=0;exitPerimeter=0;" edge="1" parent="1" source="yYu6e-wtfFfVc4EaeInW-13" target="yYu6e-wtfFfVc4EaeInW-11">
          <mxGeometry relative="1" as="geometry">
            <mxPoint x="150" y="430" as="sourcePoint" />
            <Array as="points">
              <mxPoint x="150" y="420" />
              <mxPoint x="430" y="420" />
              <mxPoint x="430" y="300" />
            </Array>
          </mxGeometry>
        </mxCell>
        <mxCell id="yYu6e-wtfFfVc4EaeInW-13" value="Cat (&lt;u&gt;PID&lt;/u&gt;, CBreeds)" style="rounded=0;whiteSpace=wrap;html=1;fillColor=#6AB023;fontStyle=1;fontSize=14;strokeColor=#000000;" vertex="1" parent="1">
          <mxGeometry x="80" y="440" width="170" height="40" as="geometry" />
        </mxCell>
        <mxCell id="yYu6e-wtfFfVc4EaeInW-56" style="edgeStyle=orthogonalEdgeStyle;rounded=0;orthogonalLoop=1;jettySize=auto;html=1;exitX=0.359;exitY=0.005;exitDx=0;exitDy=0;entryX=1;entryY=0.5;entryDx=0;entryDy=0;exitPerimeter=0;" edge="1" parent="1" source="yYu6e-wtfFfVc4EaeInW-14" target="yYu6e-wtfFfVc4EaeInW-9">
          <mxGeometry relative="1" as="geometry">
            <Array as="points">
              <mxPoint x="220" y="670" />
              <mxPoint x="730" y="670" />
              <mxPoint x="730" y="540" />
            </Array>
          </mxGeometry>
        </mxCell>
        <mxCell id="yYu6e-wtfFfVc4EaeInW-14" value="Payment (&lt;u&gt;PayID&lt;/u&gt;, BID, PayTotal, PayMethod, PayDate)" style="rounded=0;whiteSpace=wrap;html=1;fillColor=#6AB023;fontStyle=1;fontSize=14;strokeColor=#000000;" vertex="1" parent="1">
          <mxGeometry x="80" y="680" width="390" height="40" as="geometry" />
        </mxCell>
        <mxCell id="yYu6e-wtfFfVc4EaeInW-40" value="&lt;p&gt;&lt;/p&gt;&lt;li class=&quot;whitespace-normal break-words&quot;&gt;&lt;font style=&quot;font-size: 18px;&quot;&gt;&lt;strong style=&quot;&quot;&gt;Urgent Table&lt;/strong&gt;:&lt;/font&gt;&lt;/li&gt;&lt;ul class=&quot;[&amp;amp;:not(:last-child)_ul]:pb-1 [&amp;amp;:not(:last-child)_ol]:pb-1 list-disc space-y-1.5 pl-7&quot; depth=&quot;1&quot;&gt;&lt;li class=&quot;whitespace-normal break-words&quot;&gt;&lt;font size=&quot;3&quot; style=&quot;&quot;&gt;FK: &lt;code class=&quot;bg-text-200/5 border border-0.5 border-border-300 text-danger-000 whitespace-pre-wrap rounded-[0.3rem] px-1 py-px text-[0.9rem]&quot;&gt;CID&lt;/code&gt; points to → &lt;code class=&quot;bg-text-200/5 border border-0.5 border-border-300 text-danger-000 whitespace-pre-wrap rounded-[0.3rem] px-1 py-px text-[0.9rem]&quot;&gt;Customer.CID&lt;/code&gt;&lt;/font&gt;&lt;/li&gt;&lt;/ul&gt;&lt;li class=&quot;whitespace-normal break-words&quot;&gt;&lt;font size=&quot;3&quot;&gt;&lt;strong&gt;Room Table&lt;/strong&gt;:&lt;/font&gt;&lt;/li&gt;&lt;ul class=&quot;[&amp;amp;:not(:last-child)_ul]:pb-1 [&amp;amp;:not(:last-child)_ol]:pb-1 list-disc space-y-1.5 pl-7&quot; depth=&quot;1&quot;&gt;&lt;li class=&quot;whitespace-normal break-words&quot;&gt;&lt;font size=&quot;3&quot;&gt;FK: &lt;code class=&quot;bg-text-200/5 border border-0.5 border-border-300 text-danger-000 whitespace-pre-wrap rounded-[0.3rem] px-1 py-px text-[0.9rem]&quot;&gt;RoomType_ID&lt;/code&gt; points to → &lt;code class=&quot;bg-text-200/5 border border-0.5 border-border-300 text-danger-000 whitespace-pre-wrap rounded-[0.3rem] px-1 py-px text-[0.9rem]&quot;&gt;RoomType.RTID&lt;/code&gt;&lt;/font&gt;&lt;/li&gt;&lt;/ul&gt;&lt;li class=&quot;whitespace-normal break-words&quot;&gt;&lt;font size=&quot;3&quot;&gt;&lt;strong&gt;DogRoom Table&lt;/strong&gt;:&lt;/font&gt;&lt;/li&gt;&lt;ul class=&quot;[&amp;amp;:not(:last-child)_ul]:pb-1 [&amp;amp;:not(:last-child)_ol]:pb-1 list-disc space-y-1.5 pl-7&quot; depth=&quot;1&quot;&gt;&lt;li class=&quot;whitespace-normal break-words&quot;&gt;&lt;font size=&quot;3&quot;&gt;FK: &lt;code class=&quot;bg-text-200/5 border border-0.5 border-border-300 text-danger-000 whitespace-pre-wrap rounded-[0.3rem] px-1 py-px text-[0.9rem]&quot;&gt;RID&lt;/code&gt; points to → &lt;code class=&quot;bg-text-200/5 border border-0.5 border-border-300 text-danger-000 whitespace-pre-wrap rounded-[0.3rem] px-1 py-px text-[0.9rem]&quot;&gt;Room.RID&lt;/code&gt;&lt;/font&gt;&lt;/li&gt;&lt;/ul&gt;&lt;li class=&quot;whitespace-normal break-words&quot;&gt;&lt;font size=&quot;3&quot;&gt;&lt;strong&gt;CatRoom Table&lt;/strong&gt;:&lt;/font&gt;&lt;/li&gt;&lt;ul class=&quot;[&amp;amp;:not(:last-child)_ul]:pb-1 [&amp;amp;:not(:last-child)_ol]:pb-1 list-disc space-y-1.5 pl-7&quot; depth=&quot;1&quot;&gt;&lt;li class=&quot;whitespace-normal break-words&quot;&gt;&lt;font size=&quot;3&quot;&gt;FK: &lt;code class=&quot;bg-text-200/5 border border-0.5 border-border-300 text-danger-000 whitespace-pre-wrap rounded-[0.3rem] px-1 py-px text-[0.9rem]&quot;&gt;RID&lt;/code&gt; points to → &lt;code class=&quot;bg-text-200/5 border border-0.5 border-border-300 text-danger-000 whitespace-pre-wrap rounded-[0.3rem] px-1 py-px text-[0.9rem]&quot;&gt;Room.RID&lt;/code&gt;&lt;/font&gt;&lt;/li&gt;&lt;/ul&gt;&lt;li class=&quot;whitespace-normal break-words&quot;&gt;&lt;font size=&quot;3&quot;&gt;&lt;strong&gt;Booking Table&lt;/strong&gt;:&lt;/font&gt;&lt;/li&gt;&lt;ul class=&quot;[&amp;amp;:not(:last-child)_ul]:pb-1 [&amp;amp;:not(:last-child)_ol]:pb-1 list-disc space-y-1.5 pl-7&quot; depth=&quot;1&quot;&gt;&lt;li class=&quot;whitespace-normal break-words&quot;&gt;&lt;font size=&quot;3&quot;&gt;FK: &lt;code class=&quot;bg-text-200/5 border border-0.5 border-border-300 text-danger-000 whitespace-pre-wrap rounded-[0.3rem] px-1 py-px text-[0.9rem]&quot;&gt;CID&lt;/code&gt; points to → &lt;code class=&quot;bg-text-200/5 border border-0.5 border-border-300 text-danger-000 whitespace-pre-wrap rounded-[0.3rem] px-1 py-px text-[0.9rem]&quot;&gt;Customer.CID&lt;/code&gt;&lt;/font&gt;&lt;/li&gt;&lt;/ul&gt;&lt;li class=&quot;whitespace-normal break-words&quot;&gt;&lt;font size=&quot;3&quot;&gt;&lt;strong&gt;BookedRoom Table&lt;/strong&gt;:&lt;/font&gt;&lt;/li&gt;&lt;ul class=&quot;[&amp;amp;:not(:last-child)_ul]:pb-1 [&amp;amp;:not(:last-child)_ol]:pb-1 list-disc space-y-1.5 pl-7&quot; depth=&quot;1&quot;&gt;&lt;li class=&quot;whitespace-normal break-words&quot;&gt;&lt;font size=&quot;3&quot;&gt;FK: &lt;code class=&quot;bg-text-200/5 border border-0.5 border-border-300 text-danger-000 whitespace-pre-wrap rounded-[0.3rem] px-1 py-px text-[0.9rem]&quot;&gt;BID&lt;/code&gt; points to → &lt;code class=&quot;bg-text-200/5 border border-0.5 border-border-300 text-danger-000 whitespace-pre-wrap rounded-[0.3rem] px-1 py-px text-[0.9rem]&quot;&gt;Booking.BID&lt;/code&gt;&lt;/font&gt;&lt;/li&gt;&lt;/ul&gt;&lt;ul class=&quot;[&amp;amp;:not(:last-child)_ul]:pb-1 [&amp;amp;:not(:last-child)_ol]:pb-1 list-disc space-y-1.5 pl-7&quot; depth=&quot;1&quot;&gt;&lt;font size=&quot;3&quot;&gt;&lt;br&gt;&lt;/font&gt;&lt;/ul&gt;&lt;ul class=&quot;[&amp;amp;:not(:last-child)_ul]:pb-1 [&amp;amp;:not(:last-child)_ol]:pb-1 list-disc space-y-1.5 pl-7&quot; depth=&quot;1&quot;&gt;&lt;li class=&quot;whitespace-normal break-words&quot;&gt;&lt;font size=&quot;3&quot;&gt;FK: &lt;code class=&quot;bg-text-200/5 border border-0.5 border-border-300 text-danger-000 whitespace-pre-wrap rounded-[0.3rem] px-1 py-px text-[0.9rem]&quot;&gt;RID&lt;/code&gt; points to → &lt;code class=&quot;bg-text-200/5 border border-0.5 border-border-300 text-danger-000 whitespace-pre-wrap rounded-[0.3rem] px-1 py-px text-[0.9rem]&quot;&gt;Room.RID&lt;/code&gt;&lt;/font&gt;&lt;/li&gt;&lt;/ul&gt;&lt;ul class=&quot;[&amp;amp;:not(:last-child)_ul]:pb-1 [&amp;amp;:not(:last-child)_ol]:pb-1 list-disc space-y-1.5 pl-7&quot; depth=&quot;1&quot;&gt;&lt;font size=&quot;3&quot;&gt;&lt;br&gt;&lt;/font&gt;&lt;/ul&gt;&lt;ul class=&quot;[&amp;amp;:not(:last-child)_ul]:pb-1 [&amp;amp;:not(:last-child)_ol]:pb-1 list-disc space-y-1.5 pl-7&quot; depth=&quot;1&quot;&gt;&lt;li class=&quot;whitespace-normal break-words&quot;&gt;&lt;font size=&quot;3&quot;&gt;FK: &lt;code class=&quot;bg-text-200/5 border border-0.5 border-border-300 text-danger-000 whitespace-pre-wrap rounded-[0.3rem] px-1 py-px text-[0.9rem]&quot;&gt;PetID&lt;/code&gt; points to → &lt;code class=&quot;bg-text-200/5 border border-0.5 border-border-300 text-danger-000 whitespace-pre-wrap rounded-[0.3rem] px-1 py-px text-[0.9rem]&quot;&gt;Pet.PID&lt;/code&gt;&lt;/font&gt;&lt;/li&gt;&lt;/ul&gt;&lt;li class=&quot;whitespace-normal break-words&quot;&gt;&lt;font size=&quot;3&quot;&gt;&lt;strong&gt;Pet Table&lt;/strong&gt;:&lt;/font&gt;&lt;/li&gt;&lt;ul class=&quot;[&amp;amp;:not(:last-child)_ul]:pb-1 [&amp;amp;:not(:last-child)_ol]:pb-1 list-disc space-y-1.5 pl-7&quot; depth=&quot;1&quot;&gt;&lt;li class=&quot;whitespace-normal break-words&quot;&gt;&lt;font size=&quot;3&quot;&gt;FK: &lt;code class=&quot;bg-text-200/5 border border-0.5 border-border-300 text-danger-000 whitespace-pre-wrap rounded-[0.3rem] px-1 py-px text-[0.9rem]&quot;&gt;CID&lt;/code&gt; points to → &lt;code class=&quot;bg-text-200/5 border border-0.5 border-border-300 text-danger-000 whitespace-pre-wrap rounded-[0.3rem] px-1 py-px text-[0.9rem]&quot;&gt;Customer.CID&lt;/code&gt;&lt;/font&gt;&lt;/li&gt;&lt;/ul&gt;&lt;li class=&quot;whitespace-normal break-words&quot;&gt;&lt;font size=&quot;3&quot;&gt;&lt;strong&gt;Dog Table&lt;/strong&gt;:&lt;/font&gt;&lt;/li&gt;&lt;ul class=&quot;[&amp;amp;:not(:last-child)_ul]:pb-1 [&amp;amp;:not(:last-child)_ol]:pb-1 list-disc space-y-1.5 pl-7&quot; depth=&quot;1&quot;&gt;&lt;li class=&quot;whitespace-normal break-words&quot;&gt;&lt;font size=&quot;3&quot;&gt;FK: &lt;code class=&quot;bg-text-200/5 border border-0.5 border-border-300 text-danger-000 whitespace-pre-wrap rounded-[0.3rem] px-1 py-px text-[0.9rem]&quot;&gt;PID&lt;/code&gt; points to → &lt;code class=&quot;bg-text-200/5 border border-0.5 border-border-300 text-danger-000 whitespace-pre-wrap rounded-[0.3rem] px-1 py-px text-[0.9rem]&quot;&gt;Pet.PID&lt;/code&gt;&lt;/font&gt;&lt;/li&gt;&lt;/ul&gt;&lt;li class=&quot;whitespace-normal break-words&quot;&gt;&lt;font size=&quot;3&quot;&gt;&lt;strong&gt;Cat Table&lt;/strong&gt;:&lt;/font&gt;&lt;/li&gt;&lt;ul class=&quot;[&amp;amp;:not(:last-child)_ul]:pb-1 [&amp;amp;:not(:last-child)_ol]:pb-1 list-disc space-y-1.5 pl-7&quot; depth=&quot;1&quot;&gt;&lt;font size=&quot;3&quot;&gt;&lt;br&gt;&lt;/font&gt;&lt;/ul&gt;&lt;ul class=&quot;[&amp;amp;:not(:last-child)_ul]:pb-1 [&amp;amp;:not(:last-child)_ol]:pb-1 list-disc space-y-1.5 pl-7&quot; depth=&quot;1&quot;&gt;&lt;li class=&quot;whitespace-normal break-words&quot;&gt;&lt;font size=&quot;3&quot;&gt;FK: &lt;code class=&quot;bg-text-200/5 border border-0.5 border-border-300 text-danger-000 whitespace-pre-wrap rounded-[0.3rem] px-1 py-px text-[0.9rem]&quot;&gt;PID&lt;/code&gt; points to → &lt;code class=&quot;bg-text-200/5 border border-0.5 border-border-300 text-danger-000 whitespace-pre-wrap rounded-[0.3rem] px-1 py-px text-[0.9rem]&quot;&gt;Pet.PID&lt;/code&gt;&lt;/font&gt;&lt;/li&gt;&lt;/ul&gt;&lt;li class=&quot;whitespace-normal break-words&quot;&gt;&lt;font size=&quot;3&quot;&gt;&lt;strong&gt;Payment Table&lt;/strong&gt;:&lt;/font&gt;&lt;/li&gt;&lt;ul class=&quot;[&amp;amp;:not(:last-child)_ul]:pb-1 [&amp;amp;:not(:last-child)_ol]:pb-1 list-disc space-y-1.5 pl-7&quot; depth=&quot;1&quot;&gt;&lt;li class=&quot;whitespace-normal break-words&quot;&gt;&lt;font size=&quot;3&quot;&gt;FK: &lt;code class=&quot;bg-text-200/5 border border-0.5 border-border-300 text-danger-000 whitespace-pre-wrap rounded-[0.3rem] px-1 py-px text-[0.9rem]&quot;&gt;BID&lt;/code&gt; points to → &lt;code class=&quot;bg-text-200/5 border border-0.5 border-border-300 text-danger-000 whitespace-pre-wrap rounded-[0.3rem] px-1 py-px text-[0.9rem]&quot;&gt;Booking.BID&lt;/code&gt;&lt;/font&gt;&lt;/li&gt;&lt;/ul&gt;&lt;p&gt;&lt;/p&gt;" style="text;html=1;align=left;verticalAlign=middle;whiteSpace=wrap;rounded=0;" vertex="1" parent="1">
          <mxGeometry x="1190" y="150" width="450" height="660" as="geometry" />
        </mxCell>
      </root>
    </mxGraphModel>
  </diagram>
</mxfile>
